<?xml version="1.0" encoding="UTF-8"?>
<svg xmlns="http://www.w3.org/2000/svg" xmlns:xlink="http://www.w3.org/1999/xlink" width="16pt" height="16pt" viewBox="0 0 16 16" version="1.1">
<g id="surface7743970">
<path style=" stroke:none;fill-rule:nonzero;fill:rgb(90.588235%,29.803922%,23.529412%);fill-opacity:1;" d="M 8.398438 9.660156 L 3.542969 14.515625 L 1.882812 12.855469 L 6.738281 8 L 1.882812 3.144531 L 3.542969 1.484375 L 8.398438 6.339844 L 13.257812 1.484375 L 14.917969 3.144531 L 10.058594 8 L 14.917969 12.855469 L 13.257812 14.515625 Z M 8.398438 9.660156 "/>
<path style=" stroke:none;fill-rule:nonzero;fill:rgb(78.039216%,26.27451%,26.27451%);fill-opacity:1;" d="M 13.257812 1.765625 L 14.632812 3.144531 L 9.777344 8 L 14.632812 12.855469 L 13.257812 14.234375 L 8.683594 9.660156 L 8.398438 9.378906 L 3.542969 14.234375 L 2.164062 12.855469 L 6.738281 8.28125 L 7.023438 8 L 6.738281 7.71875 L 2.164062 3.144531 L 3.542969 1.765625 L 8.398438 6.621094 L 8.683594 6.339844 L 13.257812 1.765625 M 13.257812 1.199219 L 8.398438 6.058594 L 3.542969 1.199219 L 1.601562 3.144531 L 6.457031 8 L 1.601562 12.855469 L 3.542969 14.800781 L 8.398438 9.941406 L 13.257812 14.800781 L 15.199219 12.855469 L 10.34375 8 L 15.199219 3.144531 Z M 13.257812 1.199219 "/>
</g>
</svg>
